<mxfile host="app.diagrams.net" modified="2023-10-05T20:19:54.709Z" agent="Mozilla/5.0 (X11; Linux x86_64) AppleWebKit/537.36 (KHTML, like Gecko) Chrome/117.0.0.0 Safari/537.36" etag="AUtdGkCfGec0QoQAmPEA" version="22.0.2" type="github">
  <diagram name="Page-1" id="5f0bae14-7c28-e335-631c-24af17079c00">
    <mxGraphModel dx="2446" dy="609" grid="1" gridSize="10" guides="1" tooltips="1" connect="1" arrows="1" fold="1" page="1" pageScale="1" pageWidth="1100" pageHeight="850" background="none" math="0" shadow="0">
      <root>
        <mxCell id="0" />
        <mxCell id="1" parent="0" />
        <mxCell id="EeXkkkL23-UbbNsX8uU1-13" value="" style="rounded=0;whiteSpace=wrap;html=1;fillColor=none;align=left;" vertex="1" parent="1">
          <mxGeometry x="30" y="888" width="580" height="282" as="geometry" />
        </mxCell>
        <mxCell id="EeXkkkL23-UbbNsX8uU1-3" value="" style="rounded=0;whiteSpace=wrap;html=1;fillColor=none;align=left;" vertex="1" parent="1">
          <mxGeometry x="30" y="210" width="630" height="650" as="geometry" />
        </mxCell>
        <mxCell id="EeXkkkL23-UbbNsX8uU1-2" value="" style="rounded=0;whiteSpace=wrap;html=1;dashed=1;fillColor=none;align=left;" vertex="1" parent="1">
          <mxGeometry x="45" y="580" width="235" height="240" as="geometry" />
        </mxCell>
        <mxCell id="39150e848f15840c-1" value="Microfront Login" style="verticalAlign=top;align=left;spacingTop=8;spacingLeft=2;spacingRight=12;shape=cube;size=10;direction=south;fontStyle=4;html=1;rounded=0;shadow=0;comic=0;labelBackgroundColor=none;strokeWidth=1;fontFamily=Verdana;fontSize=12" parent="1" vertex="1">
          <mxGeometry x="170" y="250" width="240" height="130" as="geometry" />
        </mxCell>
        <mxCell id="39150e848f15840c-2" value="BFF Login" style="verticalAlign=top;align=left;spacingTop=8;spacingLeft=2;spacingRight=12;shape=cube;size=10;direction=south;fontStyle=4;html=1;rounded=0;shadow=0;comic=0;labelBackgroundColor=none;strokeWidth=1;fontFamily=Verdana;fontSize=12" parent="1" vertex="1">
          <mxGeometry x="60" y="620" width="180" height="190" as="geometry" />
        </mxCell>
        <mxCell id="39150e848f15840c-3" value="API Gateway" style="verticalAlign=top;align=left;spacingTop=8;spacingLeft=2;spacingRight=12;shape=cube;size=10;direction=south;fontStyle=4;html=1;rounded=0;shadow=0;comic=0;labelBackgroundColor=none;strokeWidth=1;fontFamily=Verdana;fontSize=12" parent="1" vertex="1">
          <mxGeometry x="420" y="410" width="180" height="150" as="geometry" />
        </mxCell>
        <mxCell id="39150e848f15840c-5" value="Login" style="shape=component;align=left;spacingLeft=36;rounded=0;shadow=0;comic=0;labelBackgroundColor=none;strokeWidth=1;fontFamily=Verdana;fontSize=12;html=1;" parent="1" vertex="1">
          <mxGeometry x="200" y="300" width="120" height="60" as="geometry" />
        </mxCell>
        <mxCell id="39150e848f15840c-6" value="" style="ellipse;whiteSpace=wrap;html=1;rounded=0;shadow=0;comic=0;labelBackgroundColor=none;strokeWidth=1;fontFamily=Verdana;fontSize=12;align=center;" parent="1" vertex="1">
          <mxGeometry x="350" y="320" width="20" height="20" as="geometry" />
        </mxCell>
        <mxCell id="39150e848f15840c-7" value="Login" style="shape=component;align=left;spacingLeft=36;rounded=0;shadow=0;comic=0;labelBackgroundColor=none;strokeWidth=1;fontFamily=Verdana;fontSize=12;html=1;" parent="1" vertex="1">
          <mxGeometry x="90" y="685" width="120" height="60" as="geometry" />
        </mxCell>
        <mxCell id="39150e848f15840c-9" value="" style="ellipse;whiteSpace=wrap;html=1;rounded=0;shadow=0;comic=0;labelBackgroundColor=none;strokeWidth=1;fontFamily=Verdana;fontSize=12;align=center;" parent="1" vertex="1">
          <mxGeometry x="150" y="780" width="20" height="20" as="geometry" />
        </mxCell>
        <mxCell id="39150e848f15840c-10" value="Login WOM CX" style="shape=component;align=left;spacingLeft=36;rounded=0;shadow=0;comic=0;labelBackgroundColor=none;strokeWidth=1;fontFamily=Verdana;fontSize=12;html=1;" parent="1" vertex="1">
          <mxGeometry x="440" y="455" width="130" height="60" as="geometry" />
        </mxCell>
        <mxCell id="39150e848f15840c-11" value="REST" style="edgeStyle=none;rounded=0;html=1;dashed=1;labelBackgroundColor=none;startArrow=classic;startFill=1;startSize=8;endArrow=none;endFill=0;endSize=16;fontFamily=Verdana;fontSize=12;" parent="1" source="39150e848f15840c-10" target="39150e848f15840c-6" edge="1">
          <mxGeometry x="-0.3402" y="-44" relative="1" as="geometry">
            <mxPoint as="offset" />
          </mxGeometry>
        </mxCell>
        <mxCell id="39150e848f15840c-13" style="edgeStyle=elbowEdgeStyle;rounded=0;html=1;labelBackgroundColor=none;startArrow=none;startFill=0;startSize=8;endArrow=none;endFill=0;endSize=16;fontFamily=Verdana;fontSize=12;" parent="1" source="39150e848f15840c-9" target="39150e848f15840c-7" edge="1">
          <mxGeometry relative="1" as="geometry" />
        </mxCell>
        <mxCell id="39150e848f15840c-14" style="edgeStyle=elbowEdgeStyle;rounded=0;html=1;labelBackgroundColor=none;startArrow=none;startFill=0;startSize=8;endArrow=none;endFill=0;endSize=16;fontFamily=Verdana;fontSize=12;" parent="1" source="39150e848f15840c-6" target="39150e848f15840c-5" edge="1">
          <mxGeometry relative="1" as="geometry" />
        </mxCell>
        <mxCell id="39150e848f15840c-18" style="edgeStyle=orthogonalEdgeStyle;rounded=0;html=1;labelBackgroundColor=none;startArrow=none;startFill=0;startSize=8;endArrow=none;endFill=0;endSize=16;fontFamily=Verdana;fontSize=12;" parent="1" source="39150e848f15840c-3" target="39150e848f15840c-1" edge="1">
          <mxGeometry relative="1" as="geometry">
            <Array as="points">
              <mxPoint x="335" y="485" />
            </Array>
          </mxGeometry>
        </mxCell>
        <mxCell id="EeXkkkL23-UbbNsX8uU1-1" value="REST" style="edgeStyle=orthogonalEdgeStyle;rounded=0;html=1;labelBackgroundColor=none;startArrow=none;startFill=0;startSize=8;endArrow=none;endFill=0;endSize=16;fontFamily=Verdana;fontSize=12;exitX=0;exitY=0;exitDx=150;exitDy=135;exitPerimeter=0;entryX=0;entryY=0;entryDx=0;entryDy=85;entryPerimeter=0;" edge="1" parent="1" source="39150e848f15840c-3" target="39150e848f15840c-2">
          <mxGeometry y="-10" relative="1" as="geometry">
            <Array as="points">
              <mxPoint x="465" y="570" />
              <mxPoint x="155" y="570" />
            </Array>
            <mxPoint x="430" y="495" as="sourcePoint" />
            <mxPoint x="345" y="210" as="targetPoint" />
            <mxPoint as="offset" />
          </mxGeometry>
        </mxCell>
        <mxCell id="EeXkkkL23-UbbNsX8uU1-4" value="MongoDB Atlas" style="verticalAlign=top;align=left;spacingTop=8;spacingLeft=2;spacingRight=12;shape=cube;size=10;direction=south;fontStyle=4;html=1;rounded=0;shadow=0;comic=0;labelBackgroundColor=none;strokeWidth=1;fontFamily=Verdana;fontSize=12" vertex="1" parent="1">
          <mxGeometry x="400" y="620" width="190" height="190" as="geometry" />
        </mxCell>
        <mxCell id="EeXkkkL23-UbbNsX8uU1-5" value="HTTPS&lt;br&gt;Atlas API" style="edgeStyle=orthogonalEdgeStyle;rounded=0;orthogonalLoop=1;jettySize=auto;html=1;entryX=0.657;entryY=0.999;entryDx=0;entryDy=0;entryPerimeter=0;endArrow=none;endFill=0;" edge="1" parent="1" source="39150e848f15840c-2" target="EeXkkkL23-UbbNsX8uU1-4">
          <mxGeometry x="0.2853" y="-15" relative="1" as="geometry">
            <Array as="points">
              <mxPoint x="370" y="715" />
            </Array>
            <mxPoint x="1" as="offset" />
          </mxGeometry>
        </mxCell>
        <mxCell id="EeXkkkL23-UbbNsX8uU1-6" value="Wom CX" style="shape=component;align=left;spacingLeft=36;rounded=0;shadow=0;comic=0;labelBackgroundColor=none;strokeWidth=1;fontFamily=Verdana;fontSize=12;html=1;" vertex="1" parent="1">
          <mxGeometry x="430" y="685" width="120" height="60" as="geometry" />
        </mxCell>
        <mxCell id="EeXkkkL23-UbbNsX8uU1-7" value="API Cast Ecommerce" style="verticalAlign=top;align=left;spacingTop=8;spacingLeft=2;spacingRight=12;shape=cube;size=10;direction=south;fontStyle=4;html=1;rounded=0;shadow=0;comic=0;labelBackgroundColor=none;strokeWidth=1;fontFamily=Verdana;fontSize=12" vertex="1" parent="1">
          <mxGeometry x="45" y="950" width="190" height="190" as="geometry" />
        </mxCell>
        <mxCell id="EeXkkkL23-UbbNsX8uU1-9" value="Zsmart" style="verticalAlign=top;align=left;spacingTop=8;spacingLeft=2;spacingRight=12;shape=cube;size=10;direction=south;fontStyle=4;html=1;rounded=0;shadow=0;comic=0;labelBackgroundColor=none;strokeWidth=1;fontFamily=Verdana;fontSize=12" vertex="1" parent="1">
          <mxGeometry x="380" y="950" width="190" height="190" as="geometry" />
        </mxCell>
        <mxCell id="EeXkkkL23-UbbNsX8uU1-11" value="SOAP" style="edgeStyle=orthogonalEdgeStyle;rounded=0;orthogonalLoop=1;jettySize=auto;html=1;entryX=0.474;entryY=1;entryDx=0;entryDy=0;entryPerimeter=0;endArrow=none;endFill=0;" edge="1" parent="1" source="EeXkkkL23-UbbNsX8uU1-7" target="EeXkkkL23-UbbNsX8uU1-9">
          <mxGeometry x="0.0328" y="13" relative="1" as="geometry">
            <mxPoint x="-8" y="3" as="offset" />
          </mxGeometry>
        </mxCell>
        <mxCell id="EeXkkkL23-UbbNsX8uU1-12" value="REST" style="edgeStyle=orthogonalEdgeStyle;rounded=0;html=1;labelBackgroundColor=none;startArrow=none;startFill=0;startSize=8;endArrow=none;endFill=0;endSize=16;fontFamily=Verdana;fontSize=12;exitX=0;exitY=0;exitDx=0;exitDy=90;exitPerimeter=0;entryX=0;entryY=0;entryDx=190;entryDy=95;entryPerimeter=0;" edge="1" parent="1" source="EeXkkkL23-UbbNsX8uU1-7" target="39150e848f15840c-2">
          <mxGeometry x="0.1351" y="15" relative="1" as="geometry">
            <Array as="points">
              <mxPoint x="145" y="930" />
              <mxPoint x="145" y="930" />
            </Array>
            <mxPoint x="475" y="570" as="sourcePoint" />
            <mxPoint x="270" y="735" as="targetPoint" />
            <mxPoint as="offset" />
          </mxGeometry>
        </mxCell>
        <mxCell id="EeXkkkL23-UbbNsX8uU1-14" value="AWS" style="text;html=1;strokeColor=none;fillColor=none;align=center;verticalAlign=middle;whiteSpace=wrap;rounded=0;" vertex="1" parent="1">
          <mxGeometry x="30" y="210" width="60" height="30" as="geometry" />
        </mxCell>
        <mxCell id="EeXkkkL23-UbbNsX8uU1-15" value="BFF" style="text;html=1;strokeColor=none;fillColor=none;align=center;verticalAlign=middle;whiteSpace=wrap;rounded=0;" vertex="1" parent="1">
          <mxGeometry x="40" y="580" width="60" height="30" as="geometry" />
        </mxCell>
        <mxCell id="EeXkkkL23-UbbNsX8uU1-16" value="Onpremise WOM" style="text;html=1;strokeColor=none;fillColor=none;align=center;verticalAlign=middle;whiteSpace=wrap;rounded=0;" vertex="1" parent="1">
          <mxGeometry x="40" y="900" width="60" height="30" as="geometry" />
        </mxCell>
        <mxCell id="EeXkkkL23-UbbNsX8uU1-18" style="edgeStyle=orthogonalEdgeStyle;rounded=0;orthogonalLoop=1;jettySize=auto;html=1;endArrow=none;endFill=0;" edge="1" parent="1" source="EeXkkkL23-UbbNsX8uU1-17" target="EeXkkkL23-UbbNsX8uU1-7">
          <mxGeometry relative="1" as="geometry" />
        </mxCell>
        <mxCell id="EeXkkkL23-UbbNsX8uU1-17" value="Servicios que se irán exponiendo a medida que se vaya requiriendo" style="text;html=1;strokeColor=none;fillColor=none;align=left;verticalAlign=middle;whiteSpace=wrap;rounded=0;" vertex="1" parent="1">
          <mxGeometry x="-150" y="950" width="150" height="80" as="geometry" />
        </mxCell>
        <mxCell id="EeXkkkL23-UbbNsX8uU1-19" value="Base de Datos que alojará data asociada a WOM CX" style="text;html=1;strokeColor=none;fillColor=none;align=right;verticalAlign=middle;whiteSpace=wrap;rounded=0;" vertex="1" parent="1">
          <mxGeometry x="740" y="580" width="100" height="70" as="geometry" />
        </mxCell>
        <mxCell id="EeXkkkL23-UbbNsX8uU1-20" style="edgeStyle=orthogonalEdgeStyle;rounded=0;orthogonalLoop=1;jettySize=auto;html=1;endArrow=none;endFill=0;exitX=0.018;exitY=0.386;exitDx=0;exitDy=0;exitPerimeter=0;" edge="1" parent="1" source="EeXkkkL23-UbbNsX8uU1-19">
          <mxGeometry relative="1" as="geometry">
            <mxPoint x="630" y="655" as="sourcePoint" />
            <mxPoint x="590" y="640" as="targetPoint" />
          </mxGeometry>
        </mxCell>
        <mxCell id="EeXkkkL23-UbbNsX8uU1-22" style="edgeStyle=orthogonalEdgeStyle;rounded=0;orthogonalLoop=1;jettySize=auto;html=1;entryX=0;entryY=0.25;entryDx=0;entryDy=0;endArrow=none;endFill=0;" edge="1" parent="1" source="EeXkkkL23-UbbNsX8uU1-21" target="EeXkkkL23-UbbNsX8uU1-2">
          <mxGeometry relative="1" as="geometry" />
        </mxCell>
        <mxCell id="EeXkkkL23-UbbNsX8uU1-21" value="Funcionalidades incrementarán&amp;nbsp; en los siguientes Sprints" style="text;html=1;strokeColor=none;fillColor=none;align=right;verticalAlign=middle;whiteSpace=wrap;rounded=0;" vertex="1" parent="1">
          <mxGeometry x="-120" y="660" width="110" height="75" as="geometry" />
        </mxCell>
        <mxCell id="EeXkkkL23-UbbNsX8uU1-23" value="Funcionalidades incrementarán&amp;nbsp; en los siguientes Sprints" style="text;html=1;strokeColor=none;fillColor=none;align=right;verticalAlign=middle;whiteSpace=wrap;rounded=0;" vertex="1" parent="1">
          <mxGeometry x="-120" y="320" width="110" height="75" as="geometry" />
        </mxCell>
        <mxCell id="EeXkkkL23-UbbNsX8uU1-24" style="edgeStyle=orthogonalEdgeStyle;rounded=0;orthogonalLoop=1;jettySize=auto;html=1;entryX=0.597;entryY=0.994;entryDx=0;entryDy=0;entryPerimeter=0;endArrow=none;endFill=0;exitX=1;exitY=0.5;exitDx=0;exitDy=0;" edge="1" parent="1" source="EeXkkkL23-UbbNsX8uU1-23" target="39150e848f15840c-1">
          <mxGeometry relative="1" as="geometry">
            <mxPoint x="10" y="357.46153846153845" as="sourcePoint" />
          </mxGeometry>
        </mxCell>
        <mxCell id="EeXkkkL23-UbbNsX8uU1-26" style="edgeStyle=orthogonalEdgeStyle;rounded=0;orthogonalLoop=1;jettySize=auto;html=1;endArrow=none;endFill=0;" edge="1" parent="1" source="EeXkkkL23-UbbNsX8uU1-25" target="39150e848f15840c-3">
          <mxGeometry relative="1" as="geometry" />
        </mxCell>
        <mxCell id="EeXkkkL23-UbbNsX8uU1-25" value="API que irá exponiendo servicios incrementalmente en cada Sprint" style="text;html=1;strokeColor=none;fillColor=none;align=left;verticalAlign=middle;whiteSpace=wrap;rounded=0;" vertex="1" parent="1">
          <mxGeometry x="730" y="425" width="130" height="90" as="geometry" />
        </mxCell>
        <mxCell id="EeXkkkL23-UbbNsX8uU1-8" value="QryOrgByStaff" style="shape=component;align=left;spacingLeft=36;rounded=0;shadow=0;comic=0;labelBackgroundColor=none;strokeWidth=1;fontFamily=Verdana;fontSize=12;html=1;" vertex="1" parent="1">
          <mxGeometry x="410" y="985" width="120" height="60" as="geometry" />
        </mxCell>
        <mxCell id="EeXkkkL23-UbbNsX8uU1-27" value="API WOM-CX" style="shape=component;align=left;spacingLeft=36;rounded=0;shadow=0;comic=0;labelBackgroundColor=none;strokeWidth=1;fontFamily=Verdana;fontSize=12;html=1;" vertex="1" parent="1">
          <mxGeometry x="65" y="990" width="120" height="60" as="geometry" />
        </mxCell>
        <mxCell id="EeXkkkL23-UbbNsX8uU1-28" value="" style="rounded=0;whiteSpace=wrap;html=1;dashed=1;fillColor=none;align=left;" vertex="1" parent="1">
          <mxGeometry x="330" y="580" width="280" height="255" as="geometry" />
        </mxCell>
        <mxCell id="EeXkkkL23-UbbNsX8uU1-29" value="Cluster Mongo Atlas" style="text;html=1;strokeColor=none;fillColor=none;align=center;verticalAlign=middle;whiteSpace=wrap;rounded=0;" vertex="1" parent="1">
          <mxGeometry x="330" y="580" width="110" height="40" as="geometry" />
        </mxCell>
      </root>
    </mxGraphModel>
  </diagram>
</mxfile>
